# xmcd CD database file
#
# Track frame offsets:
#	150
#	27357
#	47345
#	75672
#	90985
#	107700
#	137942
#	155225
#	169872
#	196355
#	229815
#	264385
#	284260
#	310327
#
# Disc length: 4428 seconds
#
# Revision: 0
# Processed by: cddbd v1.5.1PL0 Copyright (c) Steve Scherf et al.
# Submitted via: Feurio! 1.67 - http://www.feurio.com
#
DISCID=ba114a0e
DTITLE=Spencer Davis, Pete York, Colin Hodgkinson - Live Together
DYEAR=1984
DGENRE=
TTITLE0=Keep on Running
TTITLE1=Midnight Special
TTITLE2=Walking Blues
TTITLE3=Mistakes
TTITLE4=Sliding Delta
TTITLE5=I'm A Man
TTITLE6=Crossfire
TTITLE7=Blood Runs Hot
TTITLE8=Trouble In Mind
TTITLE9=Somebody Help me
TTITLE10=Don't Leave Me
TTITLE11=Tulsa Time
TTITLE12=Gimme Some Lovin'
TTITLE13=Muddy waters
EXTD=inakustik
EXTT0=
EXTT1=
EXTT2=
EXTT3=
EXTT4=
EXTT5=
EXTT6=
EXTT7=
EXTT8=
EXTT9=
EXTT10=
EXTT11=
EXTT12=
EXTT13=
PLAYORDER=
